<svg width="24" height="24" viewBox="0 0 24 24" fill="none" xmlns="http://www.w3.org/2000/svg">
<path d="M6.94922 10.2H10.9492" stroke="#1D1D1D" stroke-width="1.5" stroke-miterlimit="10"/>
<path d="M8.94922 2.70001C4.94922 2.70001 1.69922 5.93001 1.69922 9.92001C1.69922 11.77 2.39922 13.44 3.54922 14.72L2.73922 19.2L7.42922 16.97C7.91922 17.08 8.42922 17.13 8.95922 17.13C12.9592 17.13 16.2092 13.9 16.2092 9.91001C16.2092 5.92001 12.9492 2.70001 8.94922 2.70001Z" stroke="#1D1D1D" stroke-width="1.5"/>
<path d="M11.4707 16.82C11.5607 17.09 11.6807 17.36 11.8207 17.6C12.6707 19.15 14.3107 20.19 16.2007 20.19C16.9907 20.19 17.7307 19.99 18.3907 19.67L21.2007 21.19L20.4807 17.74C20.9307 16.99 21.2007 16.12 21.2007 15.19C21.2007 12.43 18.9607 10.19 16.2007 10.19" stroke="#1D1D1D" stroke-width="1.5"/>
</svg>
