<svg width="24" height="24" viewBox="0 0 24 24" fill="none" xmlns="http://www.w3.org/2000/svg">
<rect x="5" y="20" width="14" height="2" stroke="#1D1D1D"/>
<rect x="5" y="2" width="14" height="2" stroke="#1D1D1D"/>
<path d="M18 20.375C18 18.875 17.5 15.375 13 12.375C12.5 11.875 11.5 11.875 11 12.375C6.5 15.375 6.00001 18.875 6.00001 20.375" stroke="#1D1D1D"/>
<path d="M6 4C6 5.5 6.50001 8.5 11 11.5C11.5 12 12.5 12 13 11.5C17.5 8.5 18 5.5 18 4" stroke="#1D1D1D"/>
<path d="M7 7.49997C7.83333 7.8333 10.1868 8.92526 12.5 7.99997C14.5 7.19997 16.3333 7.3333 17 7.49997" stroke="#1D1D1D"/>
<path d="M8 20C8.5 19.5 9.5 18 12 18C14.5 18 15.3333 19.5 16 20" stroke="#1D1D1D"/>
<path d="M12 14V16" stroke="#1D1D1D"/>
</svg>
