<svg width="16" height="16" viewBox="0 0 16 16" fill="none" xmlns="http://www.w3.org/2000/svg">
<path d="M8 13.3627L7.79397 13.8183C7.92494 13.8775 8.07506 13.8775 8.20603 13.8183L8 13.3627ZM8 13.3627C8.20603 13.8183 8.20619 13.8182 8.20637 13.8181L8.20685 13.8179L8.20822 13.8173L8.21258 13.8153L8.22771 13.8083C8.24059 13.8023 8.259 13.7937 8.28258 13.7825C8.32973 13.76 8.39758 13.727 8.48317 13.6838C8.65428 13.5974 8.89673 13.4698 9.18679 13.303C9.76576 12.97 10.5402 12.4773 11.3173 11.8393C12.8498 10.5811 14.5 8.66817 14.5 6.2241C14.5 5.40058 14.3587 4.47846 13.87 3.7486C13.3584 2.98449 12.5121 2.5 11.2727 2.5C10.2311 2.5 9.44279 3.1414 8.87109 3.847C8.53277 4.26455 8.24395 4.73703 8 5.1824C7.75604 4.73703 7.46723 4.26455 7.12891 3.847C6.55721 3.1414 5.76894 2.5 4.72727 2.5C3.48786 2.5 2.64165 2.98449 2.12999 3.7486C1.64127 4.47846 1.5 5.40058 1.5 6.2241C1.5 8.66817 3.15023 10.5811 4.68273 11.8393C5.4598 12.4773 6.23424 12.97 6.81321 13.303C7.10327 13.4698 7.34572 13.5974 7.51683 13.6838C7.60242 13.727 7.67027 13.76 7.71742 13.7825C7.741 13.7937 7.75941 13.8023 7.77229 13.8083L7.78742 13.8153L7.79178 13.8173L7.79315 13.8179L7.79363 13.8181C7.79381 13.8182 7.79397 13.8183 8 13.3627Z" stroke="#8A8A8A" stroke-linecap="round" stroke-linejoin="round"/>
</svg>
