<svg width="24" height="24" viewBox="0 0 24 24" fill="none" xmlns="http://www.w3.org/2000/svg">
<g clip-path="url(#clip0_10_2359)">
<path d="M21.5828 7.18656C21.3522 6.32702 20.6751 5.64778 19.8155 5.41927C18.2558 5.00208 12.0021 5.00208 12.0021 5.00208C12.0021 5.00208 5.74843 5.00208 4.18868 5.41927C3.32495 5.64778 2.6478 6.32493 2.41719 7.18656C2 8.74631 2 12 2 12C2 12 2 15.2536 2.41719 16.8134C2.6478 17.6729 3.32495 18.3522 4.18449 18.5807C5.74423 18.9979 11.9979 18.9979 11.9979 18.9979C11.9979 18.9979 18.2516 18.9979 19.8113 18.5807C20.6709 18.3501 21.3501 17.6729 21.5786 16.8134C21.9958 15.2536 21.9958 12 21.9958 12C21.9958 12 21.9958 8.74631 21.5786 7.18656H21.5828Z" fill="#1D1D1D"/>
<path d="M10 15L15.195 12L10 9V15Z" fill="white"/>
</g>
<defs>
<clipPath id="clip0_10_2359">
<rect width="20" height="14" fill="white" transform="translate(2 5)"/>
</clipPath>
</defs>
</svg>
