<svg width="24" height="24" viewBox="0 0 24 24" fill="none" xmlns="http://www.w3.org/2000/svg">
<path d="M20.56 10.0923C20.3976 10.1078 20.2334 10.1165 20.0692 10.1165C18.2686 10.1165 16.589 9.20926 15.6023 7.70244V15.9243C15.6023 19.2801 12.8807 22 9.52663 22C6.17256 22 3.44922 19.2784 3.44922 15.9226C3.44922 12.5668 6.17084 9.8469 9.52663 9.8469C9.65278 9.8469 9.7772 9.85727 9.90161 9.86591V12.8605C9.7772 12.845 9.65278 12.8225 9.52663 12.8225C7.81417 12.8225 6.42485 14.2119 6.42485 15.9243C6.42485 17.6368 7.81417 19.0261 9.52663 19.0261C11.2391 19.0261 12.7528 17.6765 12.7528 15.9623L12.7822 2H15.6472C15.9168 4.56955 17.9887 6.57577 20.5652 6.76413V10.0923" fill="#1D1D1D"/>
</svg>
