<svg width="32" height="32" viewBox="0 0 32 32" fill="none" xmlns="http://www.w3.org/2000/svg">
<path d="M5.58766 23.8758L5.73994 23.4671L5.45998 23.1326C3.7569 21.0979 2.75 18.5644 2.75 15.8221C2.75 9.21663 8.61698 3.75 16 3.75C23.3833 3.75 29.25 9.21287 29.25 15.818C29.25 22.4235 23.383 27.8901 16 27.8901C13.9969 27.8901 12.0989 27.486 10.4017 26.7615L10.1829 26.6681L9.95017 26.718L4.05852 27.9801L5.58766 23.8758Z" stroke="#1D1D1D" stroke-width="1.5" stroke-miterlimit="10"/>
<path d="M11.2694 17.2382C12.1226 17.2382 12.8143 16.5484 12.8143 15.6975C12.8143 14.8466 12.1226 14.1567 11.2694 14.1567C10.4163 14.1567 9.72461 14.8466 9.72461 15.6975C9.72461 16.5484 10.4163 17.2382 11.2694 17.2382Z" fill="#1D1D1D"/>
<path d="M16.2636 17.2382C17.1168 17.2382 17.8084 16.5484 17.8084 15.6975C17.8084 14.8466 17.1168 14.1567 16.2636 14.1567C15.4104 14.1567 14.7188 14.8466 14.7188 15.6975C14.7188 16.5484 15.4104 17.2382 16.2636 17.2382Z" fill="#1D1D1D"/>
<path d="M21.2577 17.2382C22.1109 17.2382 22.8025 16.5484 22.8025 15.6975C22.8025 14.8466 22.1109 14.1567 21.2577 14.1567C20.4045 14.1567 19.7129 14.8466 19.7129 15.6975C19.7129 16.5484 20.4045 17.2382 21.2577 17.2382Z" fill="#1D1D1D"/>
</svg>
