<svg width="24" height="24" viewBox="0 0 24 24" fill="none" xmlns="http://www.w3.org/2000/svg">
<path d="M3.55469 12.7H20.4436L19.9469 21.5H4.05142L3.55469 12.7Z" stroke="#1D1D1D" stroke-linejoin="round"/>
<path d="M2.5 12.7H21.5V11H2.5L2.5 12.7Z" stroke="#1D1D1D" stroke-linejoin="round"/>
<path d="M10.9453 14.35H13.0564" stroke="#1D1D1D" stroke-linejoin="round"/>
<path d="M15.6936 12.7C15.6936 14.5226 14.0395 16.55 11.9991 16.55C9.95875 16.55 8.30469 14.5226 8.30469 12.7" stroke="#1D1D1D"/>
<path d="M5.63283 4H18.5005L18.0005 11L6.00055 11L5.63283 4Z" stroke="#1D1D1D" stroke-linejoin="round"/>
<path d="M4.75 4H19.25L19.25 2.5H4.75V4Z" stroke="#1D1D1D" stroke-linejoin="round"/>
<path d="M11.5 5.55237H13" stroke="#1D1D1D" stroke-linejoin="round"/>
<path d="M15 4.29523C15 5.68383 13.7927 7.22856 12.2381 7.22856C10.6835 7.22856 9.5 5.68383 9.5 4.29523" stroke="#1D1D1D"/>
</svg>
