<svg width="32" height="32" viewBox="0 0 32 32" fill="none" xmlns="http://www.w3.org/2000/svg">
<path d="M14.8258 28.09C14.3965 28.09 14.0508 27.7421 14.0508 27.31C14.0508 26.8779 14.3965 26.53 14.8258 26.53H17.8257C18.2551 26.53 18.6008 26.8779 18.6008 27.31C18.6008 27.7421 18.2551 28.09 17.8257 28.09H14.8258Z" fill="#1D1D1D" stroke="#1D1D1D" stroke-width="1.5" stroke-miterlimit="10"/>
<path d="M24.4121 10.7654C26.9472 10.7654 29.0003 12.6467 29.0003 14.9695C29.0003 17.2922 26.9472 19.1735 24.4121 19.1735V10.7617V10.7654Z" stroke="#1D1D1D" stroke-width="1.5" stroke-linecap="round"/>
<path d="M24.4102 20.55V19.25" stroke="#1D1D1D" stroke-width="1.5"/>
<path d="M7.58824 10.7654C5.05317 10.7654 3 12.6467 3 14.9695C3 17.2922 5.05317 19.1735 7.58824 19.1735V10.7617V10.7654Z" stroke="#1D1D1D" stroke-width="1.5" stroke-linecap="round"/>
<path d="M7.58789 12.0618C8.19965 8.2 8.19965 3 15.9996 3C23.7997 3 23.7997 8.2 24.4114 12.0618" stroke="#1D1D1D" stroke-width="1.5" stroke-linecap="round"/>
<path d="M24.4126 20.4735C24.4126 23.8518 21.5621 27.3559 19.0596 27.3559C18.5007 27.3559 18.8047 27.3559 18.2949 27.3559" stroke="#1D1D1D" stroke-width="1.5" stroke-linecap="round"/>
</svg>
