<svg width="24" height="24" viewBox="0 0 24 24" fill="none" xmlns="http://www.w3.org/2000/svg">
<g clip-path="url(#clip0_10_2353)">
<path d="M16.2264 2H7.77214C4.58444 2 2 4.58444 2 7.77214V16.2264C2 19.4141 4.58444 21.9986 7.77214 21.9986H16.2264C19.4141 21.9986 21.9986 19.4141 21.9986 16.2264V7.77214C22 4.58444 19.4156 2 16.2264 2ZM20.1576 16.3751C20.1576 18.4908 18.4427 20.2072 16.3256 20.2072H7.67302C5.55732 20.2072 3.84097 18.4922 3.84097 16.3751V7.724C3.84097 5.6083 5.5559 3.89195 7.67302 3.89195H16.3256C18.4413 3.89195 20.1576 5.60688 20.1576 7.724V16.3765V16.3751Z" fill="#1D1D1D"/>
<path d="M11.9992 6.86017C9.133 6.86017 6.81055 9.18404 6.81055 12.0489C6.81055 14.9137 9.13442 17.2376 11.9992 17.2376C14.8641 17.2376 17.1879 14.9137 17.1879 12.0489C17.1879 9.18404 14.8641 6.86017 11.9992 6.86017ZM11.9992 15.4136C10.1413 15.4136 8.63594 13.9068 8.63594 12.0503C8.63594 10.1937 10.1427 8.68698 11.9992 8.68698C13.8558 8.68698 15.3626 10.1937 15.3626 12.0503C15.3626 13.9068 13.8558 15.4136 11.9992 15.4136Z" fill="#1D1D1D"/>
<path d="M17.3617 7.87267C18.0296 7.87267 18.5711 7.33121 18.5711 6.66329C18.5711 5.99537 18.0296 5.45392 17.3617 5.45392C16.6938 5.45392 16.1523 5.99537 16.1523 6.66329C16.1523 7.33121 16.6938 7.87267 17.3617 7.87267Z" fill="#1D1D1D"/>
</g>
<defs>
<clipPath id="clip0_10_2353">
<rect width="20" height="20" fill="white" transform="translate(2 2)"/>
</clipPath>
</defs>
</svg>
