<svg width="24" height="24" viewBox="0 0 24 24" fill="none" xmlns="http://www.w3.org/2000/svg">
<path d="M11.0962 21.3C10.7659 21.3 10.5 21.0323 10.5 20.7C10.5 20.3676 10.7659 20.1 11.0962 20.1H13.4038C13.7341 20.1 14 20.3676 14 20.7C14 21.0323 13.7341 21.3 13.4038 21.3H11.0962Z" stroke="#1D1D1D" stroke-width="1.5" stroke-miterlimit="10"/>
<path d="M18.4707 7.97344C20.4208 7.97344 22.0001 9.42054 22.0001 11.2073C22.0001 12.9941 20.4208 14.4412 18.4707 14.4412V7.97058V7.97344Z" stroke="#1D1D1D" stroke-width="1.5" stroke-linecap="round"/>
<path d="M5.52941 7.97344C3.57936 7.97344 2 9.42054 2 11.2073C2 12.9941 3.57936 14.4412 5.52941 14.4412V7.97058V7.97344Z" stroke="#1D1D1D" stroke-width="1.5" stroke-linecap="round"/>
<path d="M5.5293 8.97059C5.99988 6 5.99988 2 11.9999 2C17.9999 2 17.9999 6 18.4705 8.97059" stroke="#1D1D1D" stroke-width="1.5" stroke-linecap="round"/>
<path d="M18.4715 15.4412C18.4715 18.0399 16.2788 20.7353 14.3539 20.7353C13.9239 20.7353 14.1578 20.7353 13.7656 20.7353" stroke="#1D1D1D" stroke-width="1.5" stroke-linecap="round"/>
</svg>
