<svg width="24" height="24" viewBox="0 0 24 24" fill="none" xmlns="http://www.w3.org/2000/svg">
<path d="M9.33999 3.03913C9.43948 2.43997 9.95904 2 10.567 2H13.4335C14.0415 2 14.5611 2.43997 14.6606 3.03913L14.896 4.45522C14.9657 4.86866 15.242 5.21357 15.609 5.41697C15.6908 5.46119 15.7715 5.50872 15.8522 5.55736C16.2115 5.77403 16.6482 5.84147 17.0406 5.69444L18.3859 5.19035C18.6616 5.08667 18.9652 5.0842 19.2425 5.1834C19.5199 5.2826 19.753 5.47701 19.9004 5.73203L21.3331 8.21599C21.4802 8.47102 21.532 8.76997 21.4794 9.05964C21.4268 9.34931 21.2731 9.61091 21.0457 9.7979L19.9369 10.7121C19.613 10.9785 19.4527 11.3898 19.4616 11.8087C19.4631 11.9027 19.4631 11.9967 19.4616 12.0906C19.4527 12.5085 19.613 12.9197 19.9369 13.1861L21.0468 14.1003C21.5155 14.4873 21.6371 15.1561 21.3342 15.6811L19.8993 18.1651C19.7521 18.4201 19.5193 18.6145 19.2421 18.7139C18.965 18.8133 18.6616 18.8112 18.3859 18.7079L17.0406 18.2038C16.6482 18.0568 16.2115 18.1242 15.8511 18.3409C15.771 18.3896 15.6899 18.4368 15.6079 18.4824C15.242 18.6847 14.9657 19.0296 14.896 19.443L14.6606 20.8591C14.5611 21.4594 14.0415 21.8982 13.4335 21.8982H10.5659C9.95794 21.8982 9.43948 21.4583 9.33888 20.8591L9.10342 19.443C9.03488 19.0296 8.75851 18.6847 8.3915 18.4813C8.30953 18.4361 8.22845 18.3893 8.1483 18.3409C7.78903 18.1242 7.35237 18.0568 6.95883 18.2038L5.61349 18.7079C5.33793 18.8113 5.03463 18.8136 4.75753 18.7144C4.48043 18.6152 4.24748 18.421 4.10011 18.1662L2.66634 15.6823C2.51925 15.4272 2.46741 15.1283 2.52004 14.8386C2.57267 14.5489 2.72635 14.2873 2.95375 14.1003L4.06363 13.1861C4.38643 12.9208 4.54672 12.5085 4.53898 12.0906C4.53725 11.9967 4.53725 11.9027 4.53898 11.8087C4.54672 11.3887 4.38643 10.9785 4.06363 10.7121L2.95375 9.7979C2.72663 9.61096 2.57312 9.34956 2.52049 9.06014C2.46787 8.77072 2.51955 8.47202 2.66634 8.2171L4.10011 5.73313C4.24735 5.47792 4.48041 5.28327 4.75777 5.18387C5.03512 5.08447 5.33877 5.08676 5.61459 5.19035L6.95883 5.69444C7.35237 5.84147 7.78903 5.77403 8.1483 5.55736C8.22789 5.50872 8.3097 5.46229 8.3915 5.41587C8.75851 5.21357 9.03488 4.86866 9.10342 4.45522L9.33999 3.03913Z" stroke="#1D1D1D" stroke-width="1.5" stroke-linecap="round"/>
<path d="M14.5 12C14.5 12.663 14.2366 13.2989 13.7678 13.7678C13.2989 14.2366 12.663 14.5 12 14.5C11.337 14.5 10.7011 14.2366 10.2322 13.7678C9.76339 13.2989 9.5 12.663 9.5 12C9.5 11.337 9.76339 10.7011 10.2322 10.2322C10.7011 9.76339 11.337 9.5 12 9.5C12.663 9.5 13.2989 9.76339 13.7678 10.2322C14.2366 10.7011 14.5 11.337 14.5 12Z" stroke="#1D1D1D" stroke-width="1.5" stroke-linecap="round" stroke-linejoin="round"/>
</svg>
