<svg width="24" height="24" viewBox="0 0 24 24" fill="none" xmlns="http://www.w3.org/2000/svg">
<path d="M12 19.774L11.794 20.2296C11.9249 20.2888 12.0751 20.2888 12.206 20.2296L12 19.774ZM12 19.774C12.206 20.2296 12.2062 20.2295 12.2064 20.2294L12.207 20.2292L12.2088 20.2284L12.2148 20.2256L12.2363 20.2157C12.2549 20.2071 12.2817 20.1945 12.3163 20.178C12.3854 20.1451 12.4855 20.0964 12.6121 20.0325C12.8652 19.9047 13.2249 19.7155 13.6555 19.4678C14.5158 18.973 15.6652 18.2416 16.8173 17.2957C19.0998 15.4218 21.5 12.6165 21.5 9.06613C21.5 7.85244 21.2905 6.52731 20.5973 5.49198C19.8811 4.4224 18.694 3.72998 16.9091 3.72998C15.4583 3.72998 14.3399 4.62232 13.5009 5.65786C12.9009 6.39839 12.4053 7.25954 12 8.03359C11.5947 7.25954 11.0991 6.39839 10.4991 5.65786C9.66008 4.62232 8.54167 3.72998 7.09091 3.72998C5.30604 3.72998 4.11892 4.4224 3.40272 5.49198C2.70945 6.52731 2.5 7.85244 2.5 9.06613C2.5 12.6165 4.90023 15.4218 7.18273 17.2957C8.3348 18.2416 9.48424 18.973 10.3445 19.4678C10.7751 19.7155 11.1348 19.9047 11.3879 20.0325C11.5145 20.0964 11.6146 20.1451 11.6837 20.178C11.7183 20.1945 11.7451 20.2071 11.7637 20.2157L11.7852 20.2256L11.7912 20.2284L11.793 20.2292L11.7936 20.2294C11.7938 20.2295 11.794 20.2296 12 19.774Z" stroke="#8A8A8A" stroke-linecap="round" stroke-linejoin="round"/>
</svg>
