<svg width="24" height="24" viewBox="0 0 24 24" fill="none" xmlns="http://www.w3.org/2000/svg">
<path d="M12 20.7712L11.691 21.4545C11.8874 21.5434 12.1126 21.5434 12.309 21.4545L12 20.7712ZM12 20.7712C12.309 21.4545 12.3093 21.4544 12.3096 21.4543L12.3103 21.454L12.3125 21.453L12.3196 21.4497L12.3444 21.4383C12.3656 21.4284 12.3961 21.4142 12.4351 21.3956C12.5132 21.3583 12.6257 21.3037 12.7677 21.2319C13.0517 21.0885 13.4545 20.8767 13.9364 20.5995C14.8986 20.046 16.1853 19.2273 17.4759 18.1678C20.0247 16.0752 22.75 12.9084 22.75 8.8735C22.75 7.50816 22.5154 5.99065 21.7141 4.79403C20.8784 3.54604 19.4955 2.75 17.4545 2.75C15.7557 2.75 14.4632 3.79575 13.5166 4.96412C12.9225 5.6973 12.4202 6.5335 12 7.3118C11.5798 6.5335 11.0775 5.6973 10.4834 4.96412C9.53677 3.79575 8.24432 2.75 6.54545 2.75C4.50452 2.75 3.12156 3.54604 2.2859 4.79403C1.48463 5.99065 1.25 7.50816 1.25 8.8735C1.25 12.9084 3.97534 16.0752 6.52409 18.1678C7.8147 19.2273 9.10136 20.046 10.0636 20.5995C10.5455 20.8767 10.9483 21.0885 11.2323 21.2319C11.3743 21.3037 11.4868 21.3583 11.5649 21.3956C11.6039 21.4142 11.6344 21.4284 11.6556 21.4383L11.6804 21.4497L11.6875 21.453L11.6897 21.454L11.6904 21.4543C11.6907 21.4544 11.691 21.4545 12 20.7712Z" fill="#E30E00" stroke="#E30E00" stroke-width="1.5" stroke-linecap="round" stroke-linejoin="round"/>
</svg>
